<svg xmlns="http://www.w3.org/2000/svg" viewBox="0 0 31.75 26.57"><defs><style>.cls-1{fill:none;}.cls-1,.cls-2{stroke:#b8b8b8;stroke-linecap:round;stroke-linejoin:round;stroke-width:0.75px;}.cls-2{fill:#282828;}.cls-3{fill:#b8b8b8;}</style></defs><title>资源 2</title><g id="图层_2" data-name="图层 2"><g id="文字"><path class="cls-1" d="M11.88.38C5.52.38.38,4.59.38,9.78a9,9,0,0,0,4.71,7.58l-.71,2.83,2.95-1.77a13.67,13.67,0,0,0,4.55.77c6.35,0,11.5-4.21,11.5-9.41S18.23.38,11.88.38Z"/><path class="cls-2" d="M31.38,17c0-4.19-4.15-7.59-9.28-7.59s-9.28,3.4-9.28,7.59S17,24.56,22.1,24.56A11.14,11.14,0,0,0,25,24.17l3.37,2-.78-3.12A7.24,7.24,0,0,0,31.38,17Z"/><circle class="cls-3" cx="7.99" cy="7.3" r="1.11"/><circle class="cls-3" cx="15.76" cy="7.3" r="1.11"/><circle class="cls-3" cx="19.1" cy="15.19" r="1"/><circle class="cls-3" cx="25.1" cy="15.19" r="1"/></g></g></svg>